<svg width="11" height="12" viewBox="0 0 11 12" fill="none" xmlns="http://www.w3.org/2000/svg">
<path d="M10.2082 4.04536C10.2808 3.18849 10.5414 2.40187 11 1.68055L9.24019 0C8.68434 0.456943 8.05087 0.710167 7.33377 0.754746C6.67626 0.811508 6.05325 0.692283 5.46682 0.396294C4.86419 0.682434 4.24352 0.802436 3.59673 0.754746C2.9384 0.702601 2.30884 0.464825 1.7823 0.0694615L0.0180475 1.7495C0.45212 2.48092 0.693852 3.24629 0.741153 4.04536C0.763628 4.41314 0.653868 4.92011 0.406909 5.57455C0.294849 5.88362 0.196924 6.19755 0.113434 6.51539C0.0517593 6.77691 0.0133436 6.98892 0.000276972 7.14832C-0.00860831 7.84579 0.196276 8.4756 0.616498 9.0357C0.944992 9.44444 1.48673 9.89594 2.23885 10.3897C3.06152 10.7896 3.69839 11.0491 4.14448 11.1597L4.51453 11.3243C4.63082 11.3772 4.75547 11.4293 4.88535 11.4858C5.16629 11.6465 5.36307 11.8204 5.46682 12C5.59435 11.8054 5.79584 11.6361 6.06344 11.4858C6.22388 11.4201 6.38298 11.3512 6.54063 11.2792L6.81999 11.16C6.91538 11.1151 7.04004 11.0633 7.19161 11.006C7.37916 10.9351 7.56769 10.8668 7.75713 10.801C8.19173 10.6543 8.5082 10.5151 8.70916 10.3897C9.4388 9.8962 9.97218 9.45169 10.3117 9.05488C10.7468 8.49297 10.9584 7.86004 10.9488 7.14884C10.9229 6.83004 10.7815 6.32048 10.5249 5.62613C10.2808 4.94939 10.1729 4.42429 10.2082 4.04536Z" fill="url(#paint0_linear_2438_424)"/>
<defs>
<linearGradient id="paint0_linear_2438_424" x1="1.53583" y1="5.68588" x2="9.28243" y2="8.15245" gradientUnits="userSpaceOnUse">
<stop stop-color="#FF77A0"/>
<stop offset="1" stop-color="#D3557B"/>
</linearGradient>
</defs>
</svg>
