<svg xmlns="http://www.w3.org/2000/svg" viewBox="0 0 288.63 51.99">
    <defs>
        <style>.cls-1{fill:url(#linear-gradient);}</style>
        <linearGradient id="linear-gradient" x1="176.17" y1="27.45" x2="207.49" y2="27.45"
                        gradientUnits="userSpaceOnUse">
            <stop offset="0" stop-color="#1464d9"/>
            <stop offset="1" stop-color="#0cf"/>
        </linearGradient>
    </defs>
    <title>Asset 8</title>
    <g id="Layer_2" data-name="Layer 2">
        <g id="Layer_1-2" data-name="Layer 1">
            <path d="M0,39.06l2.76-5.94a19.52,19.52,0,0,0,9.91,2.76c3.81,0,5.24-1,5.24-2.6C17.91,28.62.69,33.39.69,22c0-5.4,4.87-9.22,13.19-9.22,3.93,0,8.27.9,11,2.49L22.1,21.14A16.39,16.39,0,0,0,13.88,19c-3.71,0-5.3,1.17-5.3,2.65,0,4.88,17.23.16,17.23,11.4,0,5.3-4.93,9.06-13.46,9.06C7.52,42.13,2.65,40.8,0,39.06Z"/>
            <path d="M59.62,13.2V41.71H51.78v-3.4a11.55,11.55,0,0,1-8.85,3.82c-7.16,0-12.19-4-12.19-12.82V13.2H39V28.09C39,32.86,41.13,35,44.78,35c3.82,0,6.57-2.44,6.57-7.69V13.2Z"/>
            <path d="M98.36,27.45c0,9-6.2,14.68-14.2,14.68a11.06,11.06,0,0,1-8.58-3.44V52H67.31V13.2h7.9v3.28c2.06-2.49,5.14-3.71,9-3.71C92.16,12.77,98.36,18.49,98.36,27.45Zm-8.37,0c0-4.93-3.13-7.9-7.26-7.9s-7.26,3-7.26,7.9,3.13,7.9,7.26,7.9S90,32.38,90,27.45Z"/>
            <path d="M134.93,27.45c0,9-6.2,14.68-14.2,14.68a11.06,11.06,0,0,1-8.58-3.44V52h-8.27V13.2h7.89v3.28c2.07-2.49,5.14-3.71,9-3.71C128.73,12.77,134.93,18.49,134.93,27.45Zm-8.37,0c0-4.93-3.13-7.9-7.26-7.9s-7.26,3-7.26,7.9,3.13,7.9,7.26,7.9S126.56,32.38,126.56,27.45Z"/>
            <path d="M138.7,23.16C138.7,12,147.28,4,158.84,4c6.41,0,11.76,2.34,15.26,6.58l-5.51,5.08a11.94,11.94,0,0,0-9.33-4.34c-6.94,0-11.87,4.87-11.87,11.87S152.32,35,159.26,35a11.84,11.84,0,0,0,9.33-4.4l5.51,5.09c-3.5,4.29-8.85,6.62-15.32,6.62C147.28,42.34,138.7,34.34,138.7,23.16Z"/>
            <path class="cls-1"
                  d="M176.17,27.45c0-8.58,6.62-14.68,15.69-14.68s15.63,6.1,15.63,14.68-6.57,14.68-15.63,14.68S176.17,36,176.17,27.45Zm23,0c0-4.93-3.13-7.9-7.26-7.9s-7.32,3-7.32,7.9,3.18,7.9,7.32,7.9S199.12,32.38,199.12,27.45Z"/>
            <path d="M212,4.61C212,2,214.06,0,217.14,0s5.14,1.91,5.14,4.45c0,2.76-2.07,4.77-5.14,4.77S212,7.21,212,4.61Zm1,8.59h8.27V41.71H213Z"/>
            <path d="M258.1,25.38V41.71h-8.26v-15c0-4.61-2.12-6.73-5.78-6.73-4,0-6.83,2.43-6.83,7.68v14.1H229V13.2h7.89v3.33a12.53,12.53,0,0,1,9.44-3.76C253,12.77,258.1,16.69,258.1,25.38Z"/>
            <path d="M262.82,39.06l2.76-5.94a19.52,19.52,0,0,0,9.91,2.76c3.82,0,5.25-1,5.25-2.6,0-4.66-17.23.11-17.23-11.29,0-5.4,4.88-9.22,13.2-9.22,3.92,0,8.27.9,11,2.49l-2.76,5.88A16.35,16.35,0,0,0,276.71,19c-3.71,0-5.3,1.17-5.3,2.65,0,4.88,17.22.16,17.22,11.4,0,5.3-4.93,9.06-13.46,9.06C270.35,42.13,265.48,40.8,262.82,39.06Z"/>
        </g>
    </g>
</svg>